HIERARCHY
ROOT Hips
{
  OFFSET 0.201979 17.0252 -0.123586
  CHANNELS 6 Xposition Yposition Zposition Zrotation Xrotation Yrotation
  JOINT LHipJoint
  {
    OFFSET 0 0 0
    CHANNELS 6 Xposition Yposition Zposition Zrotation Xrotation Yrotation
    JOINT LeftUpLeg
    {
      OFFSET 1.36306 -1.79463 0.83929
      CHANNELS 6 Xposition Yposition Zposition Zrotation Xrotation Yrotation
      JOINT LeftLeg
      {
        OFFSET 2.44811 -6.72613 0
        CHANNELS 6 Xposition Yposition Zposition Zrotation Xrotation Yrotation
        JOINT LeftFoot
        {
          OFFSET 2.5622 -7.03959 0
          CHANNELS 6 Xposition Yposition Zposition Zrotation Xrotation Yrotation
          JOINT LeftToeBase
          {
            OFFSET 0.15764 -0.43311 2.32255
            CHANNELS 6 Xposition Yposition Zposition Zrotation Xrotation Yrotation
            End Site
            {
              OFFSET 0 0 0
            }
          }
        }
      }
    }
  }
  JOINT RHipJoint
  {
    OFFSET 0 0 0
    CHANNELS 6 Xposition Yposition Zposition Zrotation Xrotation Yrotation
    JOINT RightUpLeg
    {
      OFFSET -1.30552 -1.79463 0.83929
      CHANNELS 6 Xposition Yposition Zposition Zrotation Xrotation Yrotation
      JOINT RightLeg
      {
        OFFSET -2.54253 -6.98555 0
        CHANNELS 6 Xposition Yposition Zposition Zrotation Xrotation Yrotation
        JOINT RightFoot
        {
          OFFSET -2.56826 -7.05623 0
          CHANNELS 6 Xposition Yposition Zposition Zrotation Xrotation Yrotation
          JOINT RightToeBase
          {
            OFFSET -0.16473 -0.45259 2.36315
            CHANNELS 6 Xposition Yposition Zposition Zrotation Xrotation Yrotation
            End Site
            {
              OFFSET 0 0 0
            }
          }
        }
      }
    }
  }
  JOINT LowerBack
  {
    OFFSET 0 0 0
    CHANNELS 6 Xposition Yposition Zposition Zrotation Xrotation Yrotation
    JOINT Spine
    {
      OFFSET 0.02827 2.03559 -0.19338
      CHANNELS 6 Xposition Yposition Zposition Zrotation Xrotation Yrotation
      JOINT Spine1
      {
        OFFSET 0.05672 2.04885 -0.04275
        CHANNELS 6 Xposition Yposition Zposition Zrotation Xrotation Yrotation
        JOINT Neck
        {
          OFFSET 0 0 0
          CHANNELS 6 Xposition Yposition Zposition Zrotation Xrotation Yrotation
          JOINT Neck1
          {
            OFFSET -0.05417 1.74624 0.17202
            CHANNELS 6 Xposition Yposition Zposition Zrotation Xrotation Yrotation
            JOINT Head
            {
              OFFSET 0.10407 1.76136 -0.12397
              CHANNELS 6 Xposition Yposition Zposition Zrotation Xrotation Yrotation
              End Site
              {
                OFFSET 0 0 0
              }
            }
          }
        }
        JOINT LeftShoulder
        {
          OFFSET 0 0 0
          CHANNELS 6 Xposition Yposition Zposition Zrotation Xrotation Yrotation
          JOINT LeftArm
          {
            OFFSET 3.36241 1.20089 -0.31121
            CHANNELS 6 Xposition Yposition Zposition Zrotation Xrotation Yrotation
            JOINT LeftForeArm
            {
              OFFSET 4.983 0 0
              CHANNELS 6 Xposition Yposition Zposition Zrotation Xrotation Yrotation
              JOINT LeftHand
              {
                OFFSET 3.48356 0 0
                CHANNELS 6 Xposition Yposition Zposition Zrotation Xrotation Yrotation
                JOINT LeftFingerBase
                {
                  OFFSET 0 0 0
                  CHANNELS 6 Xposition Yposition Zposition Zrotation Xrotation Yrotation
                  JOINT LeftHandIndex1
                  {
                    OFFSET 0.71526 0 0
                    CHANNELS 6 Xposition Yposition Zposition Zrotation Xrotation Yrotation
                    End Site
                    {
                      OFFSET 0 0 0
                    }
                  }
                }
                JOINT LThumb
                {
                  OFFSET 0 0 0
                  CHANNELS 6 Xposition Yposition Zposition Zrotation Xrotation Yrotation
                  End Site
                  {
                    OFFSET 0 0 0
                  }
                }
              }
            }
          }
        }
        JOINT RightShoulder
        {
          OFFSET 0 0 0
          CHANNELS 6 Xposition Yposition Zposition Zrotation Xrotation Yrotation
          JOINT RightArm
          {
            OFFSET -3.1366 1.37405 -0.40465
            CHANNELS 6 Xposition Yposition Zposition Zrotation Xrotation Yrotation
            JOINT RightForeArm
            {
              OFFSET -5.2419 0 0
              CHANNELS 6 Xposition Yposition Zposition Zrotation Xrotation Yrotation
              JOINT RightHand
              {
                OFFSET -3.44417 0 0
                CHANNELS 6 Xposition Yposition Zposition Zrotation Xrotation Yrotation
                JOINT RightFingerBase
                {
                  OFFSET 0 0 0
                  CHANNELS 6 Xposition Yposition Zposition Zrotation Xrotation Yrotation
                  JOINT RightHandIndex1
                  {
                    OFFSET -0.62253 0 0
                    CHANNELS 6 Xposition Yposition Zposition Zrotation Xrotation Yrotation
                    End Site
                    {
                      OFFSET 0 0 0
                    }
                  }
                }
                JOINT RThumb
                {
                  OFFSET 0 0 0
                  CHANNELS 6 Xposition Yposition Zposition Zrotation Xrotation Yrotation
                  End Site
                  {
                    OFFSET 0 0 0
                  }
                }
              }
            }
          }
        }
      }
    }
  }
}
MOTION
Frames:	4
Frame Time:	0.00833333
0.228762 17.0042 147.184 1.21433 8.40074 -7.95972 0 0 0 -0.299681 5.35791 18.0368 1.36306 -1.79463 0.83929 -47.3869 -41.7984 -30.3909 2.44811 -6.72613 0 5.81462 32.9902 3.1063 2.5622 -7.03959 2.84217e-014 0.23182 15.2968 1.57778 0.15764 -0.43311 2.32255 0.00614938 -0.0299877 -0.00896717 0 0 0 -8.85582 0.425549 -20.6242 -1.30552 -1.79463 0.83929 25.7741 3.02063 4.21341 -2.54253 -6.98555 -2.84217e-014 -4.29004 44.1928 -7.21318 -2.56826 -7.05623 1.42109e-014 -0.779986 18.1134 -1.25154 -0.16473 -0.45259 2.36315 0.879257 -8.22673 3.42351 0 0 0 -1.93281 -2.12354 0.12108 0.02827 2.03559 -0.19338 9.56809 31.2068 -2.09618 0.05672 2.04885 -0.04275 -7.18532 -10.2054 -0.813384 0 0 0 -1.14445 -9.86195 0.033104 -0.05417 1.74624 0.17202 2.26115 26.963 -1.1865 0.10407 1.76136 -0.12397 0.0964048 -0.0264709 0.0521676 0 0 0 13.3362 -5.3544 23.3499 3.36241 1.20089 -0.31121 -100.144 20.5584 -38.1846 4.983 0 0 -10.9163 5.98323 -11.0616 3.48356 0 0 0.464098 0.0654366 -1.64442 0 0 0 -0.121021 4.53672e-006 -1.14815 0.71526 0 0 3.18055e-015 -1.59028e-015 9.54166e-015 0 0 0 0 0 -6.36111e-015 0 0 0 -11.493 -6.15858 -4.84423 -3.1366 1.37405 -0.40465 72.7995 33.5124 71.4702 -5.2419 0 -1.42109e-014 42.6314 34.2259 76.6832 -3.44417 0 1.77636e-015 25.2091 -9.26954 -12.3927 0 0 0 0.388202 -2.63711e-006 2.4941 -0.62253 2.84217e-014 0 6.36111e-015 3.97569e-016 7.40473e-015 0 0 0 -6.36111e-015 -2.01269e-015 -1.36043e-015 
0.24942 16.993 147.295 1.42908 8.2467 -8.14153 0 0 0 -0.299681 5.35791 18.0368 1.36306 -1.79463 0.83929 -47.3987 -41.5515 -30.3284 2.44811 -6.72613 -1.42109e-014 5.74666 33.5258 3.69811 2.5622 -7.03959 0 -0.215588 16.527 2.1154 0.15764 -0.43311 2.32255 0.0104411 -0.0490357 -0.0153536 0 0 0 -8.85582 0.425549 -20.6242 -1.30552 -1.79463 0.83929 25.5403 2.63931 4.30996 -2.54253 -6.98555 2.84217e-014 -4.22551 45.0974 -7.31693 -2.56826 -7.05623 1.42109e-014 -1.89519 19.5884 -1.66117 -0.16473 -0.45259 2.36315 0.813024 -7.9361 3.42256 0 0 0 -1.93281 -2.12354 0.12108 0.02827 2.03559 -0.19338 9.34452 31.2741 -2.09965 0.05672 2.04885 -0.04275 -7.14924 -10.2017 -0.803927 0 0 0 -1.24024 -9.80756 0.0709899 -0.05417 1.74624 0.17202 2.14025 27.0196 -1.12805 0.10407 1.76136 -0.12397 0.167997 -0.0601846 0.0733972 0 0 0 13.2312 -5.31269 23.3552 3.36241 1.20089 -0.31121 -100.29 20.5864 -38.434 4.983 -3.55271e-015 -2.84217e-014 -10.6912 6.00783 -10.4699 3.48356 0 0 0.47118 0.128472 -1.90923 0 0 0 -0.121021 4.53672e-006 -1.14815 0.71526 -7.10543e-015 -2.84217e-014 3.18055e-015 3.18055e-015 -9.54166e-015 0 0 0 -3.18055e-015 -1.59028e-015 3.18055e-015 0 0 0 -11.5609 -6.12007 -4.81445 -3.1366 1.37405 -0.40465 72.8372 33.3986 71.3245 -5.2419 0 -1.42109e-014 42.6891 34.2627 76.7113 -3.44417 -2.84217e-014 0 25.2256 -9.21491 -12.2874 0 0 0 0.388202 -2.63711e-006 2.4941 -0.62253 0 -3.55271e-015 4.82771e-033 3.97569e-016 -6.95746e-016 0 0 0 6.36111e-015 -2.85753e-016 2.24254e-015 
0.271485 16.9745 147.446 1.69483 8.05878 -8.3298 0 0 0 -0.299681 5.35791 18.0368 1.36306 -1.79463 0.83929 -47.4459 -41.2638 -30.254 2.44811 -6.72613 -1.42109e-014 5.66311 34.1683 4.24645 2.5622 -7.03959 0 -0.719488 17.8105 2.70103 0.15764 -0.43311 2.32255 0.0142534 -0.0659601 -0.0210288 0 0 0 -8.85582 0.425549 -20.6242 -1.30552 -1.79463 0.83929 25.2645 2.02472 4.6261 -2.54253 -6.98555 0 -4.18586 46.4696 -7.63338 -2.56826 -7.05623 0 -2.18626 21.5382 -2.39236 -0.16473 -0.45259 2.36315 0.707735 -8.13375 3.42737 0 0 0 -1.93281 -2.12354 0.12108 0.02827 2.03559 -0.19338 9.06661 31.3558 -2.10093 0.05672 2.04885 -0.04275 -7.10395 -10.1959 -0.790501 0 0 0 -1.3489 -9.74503 0.112799 -0.05417 1.74624 0.17202 2.00366 27.0844 -1.06302 0.10407 1.76136 -0.12397 0.252134 -0.107087 0.0930188 0 0 0 13.1166 -5.2602 23.3521 3.36241 1.20089 -0.31121 -100.258 20.5858 -38.4657 4.983 0 0 -10.6967 6.08184 -10.4846 3.48356 0 0 0.58594 0.131475 -1.90406 0 0 0 -0.121021 4.53672e-006 -1.14815 0.71526 0 0 -1.59028e-015 1.59028e-015 -6.36111e-015 0 0 0 -1.59028e-015 1.59028e-015 -6.36111e-015 0 0 0 -11.6441 -6.07012 -4.78414 -3.1366 1.37405 -0.40465 72.8775 33.274 71.1897 -5.2419 0 0 42.7492 34.2904 76.7306 -3.44417 0 -3.55271e-015 25.2454 -9.16762 -12.1944 0 0 0 0.388202 -2.63711e-006 2.4941 -0.62253 0 -3.55271e-015 -3.18055e-015 -3.97569e-016 4.67144e-015 0 0 0 1.38743e-032 -4.96962e-016 1.5996e-015 
0.296861 16.9457 147.654 2.02917 7.8197 -8.53937 0 0 0 -0.299681 5.35791 18.0368 1.36306 -1.79463 0.83929 -47.533 -40.9115 -30.1693 2.44811 -6.72613 -1.42109e-014 5.56386 34.9094 4.72166 2.5622 -7.03959 0 -1.36604 19.3894 3.45696 0.15764 -0.43311 2.32255 0.0174789 -0.0802765 -0.0258298 0 0 0 -8.85582 0.425549 -20.6242 -1.30552 -1.79463 0.83929 24.9178 1.09387 5.20985 -2.54253 -6.98555 2.84217e-014 -4.10836 48.502 -8.27271 -2.56826 -7.05623 -1.42109e-014 -1.2941 24.2057 -3.58876 -0.16473 -0.45259 2.36315 0.552841 -9.31519 3.52366 0 0 0 -1.93281 -2.12354 0.12108 0.02827 2.03559 -0.19338 8.71807 31.4582 -2.09934 0.05672 2.04885 -0.04275 -7.04846 -10.1877 -0.771567 0 0 0 -1.47876 -9.67144 0.161947 -0.05417 1.74624 0.17202 1.84072 27.1605 -0.98607 0.10407 1.76136 -0.12397 0.35538 -0.171375 0.113392 0 0 0 12.9852 -5.1926 23.3414 3.36241 1.20089 -0.31121 -99.9748 20.5403 -38.2058 4.983 0 0 -11.0108 6.1906 -11.3361 3.48356 7.10543e-015 0 0.830557 0.0480535 -1.52245 0 0 0 -0.121021 4.53672e-006 -1.14815 0.71526 7.10543e-015 0 1.59028e-015 0 -6.36111e-015 0 0 0 -1.59028e-015 3.18055e-015 -6.36111e-015 0 0 0 -11.7518 -6.00648 -4.74676 -3.1366 1.37405 -0.40465 72.9211 33.134 71.0737 -5.2419 1.42109e-014 -1.42109e-014 42.8124 34.3048 76.7374 -3.44417 0 -1.77636e-015 25.2705 -9.13282 -12.1223 0 0 0 0.388202 -2.63711e-006 2.4941 -0.62253 0 -3.55271e-015 3.18055e-015 -1.2921e-015 2.43511e-015 0 0 0 -3.18055e-015 -2.06239e-015 -4.13721e-015 
